<svg height="480pt" viewBox="0 0 480 480" width="480pt" xmlns="http://www.w3.org/2000/svg"><path d="m0 64h480v96h-480zm0 0" fill="#f478af"/><path d="m0 64h448v96h-448zm0 0" fill="#f8a5c9"/><path d="m0 160h480v272h-480zm0 0" fill="#ccc"/><path d="m0 160h448v272h-448zm0 0" fill="#e6e6e6"/><path d="m318.625 320h18.742188c4.242187 0 8.3125-1.6875 11.3125-4.6875 7.25-7.242188 11.320312-17.066406 11.320312-27.3125 0-10.25-4.070312-20.074219-11.3125-27.3125l-20.6875-20.6875-20.6875 20.6875c-7.242188 7.238281-11.3125 17.0625-11.3125 27.3125 0 10.246094 4.070312 20.070312 11.3125 27.3125 3 3 7.070312 4.6875 11.3125 4.6875zm0 0" fill="#f7931e"/><path d="m344 288c0-10.25-4.070312-20.074219-11.3125-27.3125l-12.6875-12.6875-12.6875 12.6875c-7.242188 7.238281-11.3125 17.0625-11.3125 27.3125 0 10.246094 4.070312 20.070312 11.3125 27.3125 3 3 7.070312 4.6875 11.3125 4.6875h2.742188c4.242187 0 8.3125-1.6875 11.3125-4.6875 7.25-7.242188 11.320312-17.066406 11.320312-27.3125zm0 0" fill="#fbb03b"/><path d="m432 480h-208v-112c0-8.839844 7.160156-16 16-16h176c8.839844 0 16 7.160156 16 16zm0 0" fill="#c7b299"/><path d="m224 416h8.015625c5.113281 0 10.015625-2.03125 13.632813-5.648438l4.703124-4.703124c3.617188-3.617188 8.519532-5.648438 13.632813-5.648438h.023437c5.113282 0 10.015626 2.03125 13.632813 5.648438l4.703125 4.703124c3.625 3.617188 8.527344 5.648438 13.640625 5.648438h.023437c5.113282 0 10.015626-2.03125 13.632813-5.648438l4.703125-4.703124c3.625-3.617188 8.527344-5.648438 13.640625-5.648438h.023437c5.113282 0 10.015626 2.03125 13.632813 5.648438l4.703125 4.703124c3.625 3.617188 8.527344 5.648438 13.640625 5.648438h.023437c5.113282 0 10.015626-2.03125 13.632813-5.648438l4.703125-4.703124c3.625-3.617188 8.527344-5.648438 13.640625-5.648438h.023437c5.113282 0 10.015626 2.03125 13.632813 5.648438l4.703125 4.703124c3.625 3.617188 8.527344 5.648438 13.640625 5.648438h8.015625v-48c0-8.839844-7.160156-16-16-16h-176c-8.839844 0-16 7.160156-16 16zm0 0" fill="#c1272d"/><path d="m192 320h48v-48zm0 0" fill="#f6f"/><path d="m192 320h32v-32zm0 0" fill="#f9f"/><path d="m32 192h48v48h-48zm0 0" fill="#8c6239"/><path d="m32 192h24v48h-24zm0 0" fill="#a67c52"/><path d="m112 192h48v48h-48zm0 0" fill="#8c6239"/><path d="m112 192h24v48h-24zm0 0" fill="#a67c52"/><path d="m192 192h48v48h-48zm0 0" fill="#8c6239"/><path d="m192 192h24v48h-24zm0 0" fill="#a67c52"/><path d="m272 192h48v48h-48zm0 0" fill="#8c6239"/><path d="m272 192h24v48h-24zm0 0" fill="#a67c52"/><path d="m112 272h48v48h-48zm0 0" fill="#8c6239"/><path d="m112 272h24v48h-24zm0 0" fill="#a67c52"/><path d="m32 272h48v48h-48zm0 0" fill="#8c6239"/><path d="m32 272h24v48h-24zm0 0" fill="#a67c52"/><path d="m32 352h48v48h-48zm0 0" fill="#8c6239"/><path d="m32 352h24v48h-24zm0 0" fill="#a67c52"/><path d="m112 352h48v48h-48zm0 0" fill="#8c6239"/><path d="m112 352h24v48h-24zm0 0" fill="#a67c52"/><path d="m416 65.183594c0-20.503906-18.59375-36.585938-39.535156-31.710938-11.570313 2.6875-20.960938 12.253906-23.601563 24.039063-3.886719 17.335937 5.808594 33.085937 20.375 38.382812 6.265625 2.273438 10.761719 7.871094 10.761719 14.640625v1.855469c0 10.34375-9.839844 18.039063-19.511719 14.886719-29.601562-9.636719-49.832031-40.621094-43.242187-75.175782 4.851562-25.414062 24.960937-45.894531 49.914062-50.832031 40.976563-8.101562 76.839844 23.640625 76.839844 63.914063" fill="#998675"/><path d="m128 65.183594c0-20.503906-18.59375-36.585938-39.535156-31.710938-11.570313 2.6875-20.960938 12.253906-23.601563 24.039063-3.886719 17.335937 5.808594 33.085937 20.375 38.382812 6.265625 2.273438 10.761719 7.871094 10.761719 14.640625v1.855469c0 10.34375-9.839844 18.039063-19.511719 14.886719-29.601562-9.636719-49.832031-40.621094-43.242187-75.175782 4.851562-25.414062 24.960937-45.894531 49.914062-50.832031 40.976563-8.101562 76.839844 23.640625 76.839844 63.914063" fill="#998675"/><path d="m320 320h16v32h-16zm0 0" fill="#736357"/></svg>