<?xml version="1.0" encoding="iso-8859-1"?>
<!-- Generator: Adobe Illustrator 19.0.0, SVG Export Plug-In . SVG Version: 6.00 Build 0)  -->
<svg version="1.1" id="Capa_1" xmlns="http://www.w3.org/2000/svg" xmlns:xlink="http://www.w3.org/1999/xlink" x="0px" y="0px"
	 viewBox="0 0 512 512" style="enable-background:new 0 0 512 512;" xml:space="preserve">
<path style="fill:#023989;" d="M301.214,312.949v18.535c0,16.191,11.434,30.128,27.313,33.292l74.395,14.823
	c32.693,6.514,57.383,33.48,60.996,66.62L470,502H42l6.097-55.798c3.62-33.131,28.308-60.089,60.994-66.601l74.409-14.825
	c15.879-3.164,27.313-17.101,27.313-33.292v-18.535"/>
<g>
	<path style="fill:#FFFFFF;" d="M463.903,446.202L470,502h-50.528V384.93C443.686,395.885,460.925,418.949,463.903,446.202z"/>
	<path style="fill:#FFFFFF;" d="M328.528,364.776c-15.879-3.164-27.313-17.101-27.313-33.292v-18.535h-90.401v18.535
		c0,16.191-11.434,30.128-27.313,33.292l-10.029,1.998V502H338.53V366.768L328.528,364.776z"/>
	<path style="fill:#FFFFFF;" d="M48.097,446.202L42,502h50.528V384.93C68.314,395.885,51.075,418.949,48.097,446.202z"/>
</g>
<g>
	<polygon style="fill:#41589C;" points="338.529,366.768 338.529,502 394.105,443.93 377.243,419.913 397.401,378.416 	"/>
	<polygon style="fill:#41589C;" points="173.471,366.768 173.471,502 117.896,443.93 134.757,419.913 114.599,378.416 	"/>
</g>
<g>
	<path style="fill:#FFC89F;" d="M384.957,170.686H372v58.217h12.956c8.921,0,16.152-7.232,16.152-16.152v-25.913
		C401.109,177.917,393.877,170.686,384.957,170.686z"/>
	<path style="fill:#FFC89F;" d="M127.044,170.686H140v58.217h-12.956c-8.921,0-16.152-7.232-16.152-16.152v-25.913
		C110.891,177.917,118.123,170.686,127.044,170.686z"/>
</g>
<path style="fill:#023989;" d="M400,26v123.343c0,11.787-9.556,21.343-21.343,21.343h-2.221V91.623L400,26z"/>
<path style="fill:#FFC89F;" d="M140,91.623v147.662c1.39,18.177,10.253,34.361,23.675,43.224l69.792,39.898
	c14.014,9.255,31.054,9.255,45.068,0l69.583-39.898c13.422-8.863,22.493-25.047,23.883-43.224V91.623H140z"/>
<g>
	<polygon style="fill:#41589C;" points="210.834,325.667 210.834,393.434 256,357.424 	"/>
	<polygon style="fill:#41589C;" points="301.166,325.667 301.166,393.434 256,357.424 	"/>
	<path style="fill:#41589C;" d="M176.093,106H329.25C368.324,106,400,74.324,400,35.25V10H153.821
		c-19.095,0-34.574,15.479-34.574,34.574v115.873h15.981c22.569,0,40.865-18.296,40.865-40.865V106z"/>
</g>
<path d="M293.014,246.892c4.426-3.303,5.337-9.568,2.034-13.995s-9.568-5.338-13.995-2.034c-7.179,5.356-15.724,8.188-24.711,8.188
	c-8.905,0-17.39-2.789-24.538-8.066c-4.443-3.28-10.704-2.338-13.984,2.106c-3.28,4.443-2.337,10.704,2.106,13.984
	c10.613,7.834,23.205,11.975,36.416,11.975C269.672,259.05,282.353,254.846,293.014,246.892z"/>
<path d="M479.941,500.916l-6.082-55.782c-4.106-37.662-31.828-67.94-68.983-75.343c0,0-5.947-1.285-6.741-1.343l-67.653-13.48
	c-11.165-2.225-19.268-12.101-19.268-23.485v-16.286l41.877-24.012c0.182-0.104,0.361-0.215,0.537-0.331
	c16.129-10.651,26.725-29.645,28.343-50.807c0.02-0.253,0.029-0.508,0.029-0.762v-0.382h2.957c14.42,0,26.152-11.732,26.152-26.152
	v-25.913c0-7.178-2.908-13.689-7.607-18.419c4.07-5.288,6.498-11.902,6.498-19.076V35.25V26V10c0-5.523-4.477-10-10-10H153.82
	c-24.578,0-44.574,19.996-44.574,44.574v115.873c0,2.129,0.67,4.099,1.804,5.72c-6.174,4.788-10.159,12.271-10.159,20.67v25.913
	c0,14.42,11.732,26.152,26.152,26.152H130v0.382c0,0.254,0.01,0.509,0.029,0.762c1.625,21.252,12.143,40.246,28.135,50.807
	c0.179,0.118,0.362,0.23,0.548,0.337l42.101,24.068v16.224c0,11.384-8.103,21.26-19.268,23.485l-67.636,13.476
	c-0.824,0.057-6.773,1.35-6.773,1.35c-37.145,7.4-64.866,37.67-68.98,75.322l-6.097,55.798c-0.309,2.825,0.599,5.647,2.496,7.762
	C36.452,510.792,39.159,512,42,512h428c2.841,0,5.548-1.208,7.444-3.323C479.341,506.562,480.249,503.74,479.941,500.916z
	 M410.334,492h-48.392l39.388-41.156c3.301-3.45,3.704-8.752,0.959-12.66l-13.478-19.197l14.156-29.141
	c2.565,0.592,5.067,1.328,7.5,2.198c-0.08,0.509-0.133,1.027-0.133,1.558L410.334,492L410.334,492z M256,345.2l-9.753-6.858
	c3.225,0.648,6.489,0.979,9.754,0.979c3.264,0,6.528-0.332,9.752-0.979L256,345.2z M220.834,344.922l18.495,13.004l-18.495,14.745
	V344.922z M291.166,344.922v27.75l-18.495-14.745L291.166,344.922z M391.109,212.751c0,3.393-2.76,6.152-6.152,6.152H382v-38.218
	h2.957c3.393,0,6.152,2.76,6.152,6.152V212.751z M390,149.343c0,5.091-3.372,9.409-8,10.839v-63.87c2.847-2.463,5.52-5.119,8-7.952
	V149.343z M129.246,44.574C129.246,31.024,140.27,20,153.82,20H390v6v9.25C390,68.748,362.748,96,329.25,96H176.093
	c-5.523,0-10,4.477-10,10v13.582c0,17.019-13.846,30.865-30.865,30.865h-5.981L129.246,44.574L129.246,44.574z M127.044,218.903
	c-3.393,0-6.152-2.76-6.152-6.152v-25.913c0-3.393,2.76-6.152,6.152-6.152H130v38.218h-2.956V218.903z M150,238.888v-70.636
	c20.864-6.345,36.093-25.76,36.093-48.67V116H329.25c11.656,0,22.733-2.502,32.75-6.966v129.854
	c-1.23,14.784-8.362,27.866-19.147,35.113l-69.292,39.732c-0.183,0.104-0.361,0.214-0.537,0.331
	c-10.659,7.039-23.387,7.039-34.046,0c-0.179-0.119-0.361-0.231-0.548-0.337l-69.495-39.729
	C158.288,266.837,151.234,253.758,150,238.888z M185.454,374.583c5.613-1.118,10.8-3.297,15.38-6.291v25.142
	c0,3.841,2.2,7.343,5.661,9.009c1.38,0.665,2.863,0.991,4.338,0.991c2.224,0,4.43-0.741,6.235-2.181L256,370.214l38.932,31.039
	c1.806,1.439,4.011,2.181,6.235,2.181c1.475,0,2.958-0.326,4.338-0.991c3.46-1.667,5.661-5.168,5.661-9.009v-25.16
	c4.586,3.004,9.783,5.188,15.408,6.309l56.138,11.185l-14.465,29.776c-1.587,3.269-1.277,7.142,0.811,10.116l12.141,17.292
	l-32.67,34.136v-53.479c0-5.523-4.477-10-10-10s-10,4.477-10,10V492H183.471v-68.391c0-5.523-4.477-10-10-10s-10,4.477-10,10v53.479
	l-32.67-34.136l12.141-17.292c2.088-2.974,2.398-6.847,0.811-10.116l-14.462-29.771L185.454,374.583z M109.036,389.85l14.154,29.136
	l-13.478,19.197c-2.744,3.908-2.342,9.21,0.959,12.66L150.059,492h-48.392v-98.399c0-0.529-0.053-1.044-0.132-1.551
	C103.968,391.18,106.47,390.443,109.036,389.85z M58.038,447.288c1.931-17.676,10.641-33.225,23.628-43.952V492H53.152
	L58.038,447.288z M430.334,492v-88.679c12.999,10.731,21.716,26.291,23.644,43.981L458.851,492H430.334z"/>
<path d="M173.471,403.601c5.523,0,10-4.477,10-10v-0.167c0-5.523-4.477-10-10-10s-10,4.477-10,10v0.167
	C163.471,399.124,167.948,403.601,173.471,403.601z"/>
<path d="M338.529,403.601c5.523,0,10-4.477,10-10v-0.167c0-5.523-4.477-10-10-10s-10,4.477-10,10v0.167
	C328.529,399.124,333.006,403.601,338.529,403.601z"/>
<g>
</g>
<g>
</g>
<g>
</g>
<g>
</g>
<g>
</g>
<g>
</g>
<g>
</g>
<g>
</g>
<g>
</g>
<g>
</g>
<g>
</g>
<g>
</g>
<g>
</g>
<g>
</g>
<g>
</g>
</svg>
