<?xml version="1.0" encoding="utf-8"?>
<!-- Generator: Adobe Illustrator 23.0.2, SVG Export Plug-In . SVG Version: 6.00 Build 0)  -->
<svg version="1.1" id="Layer_4" xmlns="http://www.w3.org/2000/svg" xmlns:xlink="http://www.w3.org/1999/xlink" x="0px" y="0px"
	 viewBox="0 0 500 500" style="enable-background:new 0 0 500 500;" xml:space="preserve">
<style type="text/css">
	.st0{fill:#CCCCCC;}
	.st1{fill:#FFFFFF;}
	.st2{fill:#1D8DCD;}
</style>
<g>
	<g>
		<path class="st0" d="M57.6,222.7c0-47.8,0-95.6,0-143.3c0-16.1,10.7-26.7,26.8-26.7c43.8,0,87.6,0.1,131.4,0
			c8.2,0,14.9,2.9,20.7,8.7c22.4,22.6,44.9,45.1,67.5,67.5c5.9,5.9,8.8,12.6,8.8,21c-0.1,72,0,144,0,216c0,16.8-10.3,27.1-27.1,27.1
			c-66.8,0-133.6-0.2-200.4,0.2c-13.5,0.1-27.8-9.3-27.6-28.2c0.4-45.2,0.1-90.5,0.2-135.8C57.6,226.9,57.6,224.8,57.6,222.7
			C57.6,222.7,57.6,222.7,57.6,222.7z M210.9,69.2c-2.1,0-3.6,0-5.2,0c-12.8,0-25.6,0-38.3,0c-27.7,0-55.4,0-83,0
			c-6.9,0-10,3-10.2,9.9c-0.1,1.9,0,3.7,0,5.6c0,35.5,0,71.1,0,106.6c0,58,0,116,0,174.1c0,7.9,3,10.9,10.8,10.9
			c66.5,0,133.1,0,199.6,0c8.8,0,11.5-2.6,11.5-11.4c0-68.8,0-137.6,0-206.4c0-1.3-0.1-2.5-0.2-4.2c-1.9,0-3.5,0-5.1,0
			c-17.4,0-34.9,0-52.3,0c-16.9,0-27.4-10.3-27.4-27.3c-0.1-17.4,0-34.9,0-52.3C210.9,73,210.9,71.3,210.9,69.2z M227.8,77.5
			c-0.1,0.6-0.2,1.5-0.2,2.3c0,15.7-0.1,31.4,0,47.1c0,7.9,2.9,10.7,11,10.8c15.6,0.1,31.1,0,46.7,0c1,0,2-0.2,2.4-0.3
			C267.7,117.5,247.7,97.5,227.8,77.5z"/>
		<path class="st0" d="M185.1,206c22.2,0,44.4,0,66.7,0c6.2,0,9.7,2.9,9.7,8c0.1,5.3-3.5,8.5-9.8,8.5c-44.3,0-88.6,0-133,0
			c-5.1,0-8.4-2-9.6-5.6c-1.8-5.8,2-10.9,8.4-10.9C140.1,206,162.6,206,185.1,206z"/>
		<path class="st0" d="M185.3,188.3c-22.2,0-44.5,0-66.7,0c-6.4,0-9.9-3.1-9.8-8.4c0.1-5.1,3.7-8.2,9.7-8.2c44.5,0,88.9,0,133.4,0
			c5.9,0,9.6,3.2,9.6,8.3c0,5.2-3.4,8.2-9.5,8.2C229.7,188.3,207.5,188.3,185.3,188.3z"/>
		<path class="st0" d="M185.2,290.6c-22.2,0-44.5,0-66.7,0c-6.1,0-9.7-3-9.8-8.1c-0.1-5.2,3.7-8.5,9.8-8.5c44.3,0,88.6,0,133,0
			c3.9,0,7.6,0.8,8.9,4.6c0.8,2.5,0.6,5.8-0.4,8.2c-1.3,3.3-4.7,3.8-8.1,3.8C229.7,290.5,207.4,290.6,185.2,290.6z"/>
		<path class="st0" d="M185.3,308.2c22.5,0,45,0,67.5,0c6.2,0,10.1,5,8.5,10.6c-1.1,3.9-4.5,5.9-9.7,5.9c-25.4,0-50.8,0-76.3,0
			c-19,0-38.1,0-57.1,0c-5.8,0-9.4-3.4-9.3-8.6c0.1-4.7,3.4-7.9,8.6-8c15.7-0.1,31.4,0,47.1,0C171.4,308.2,178.3,308.2,185.3,308.2
			C185.3,308.2,185.3,308.2,185.3,308.2z"/>
		<path class="st0" d="M185.3,240c21.6,0,43.1,0,64.7,0c1.3,0,2.7,0,4,0.1c4.7,0.5,7.6,3.7,7.5,8.2c0,4.5-2.9,7.9-7.6,8.1
			c-7.7,0.3-15.4,0.2-23.1,0.2c-37.1,0-74.2,0-111.4,0c-1.5,0-2.9-0.1-4.4-0.4c-3.7-0.8-6.2-4-6.2-7.8c0-4,2.4-7.4,6.3-8.1
			c2.2-0.4,4.5-0.4,6.8-0.4C143,240,164.1,240,185.3,240z"/>
		<path class="st0" d="M142.9,137.8c8.2,0,16.5-0.1,24.7,0c5.8,0.1,9.1,3.9,8.6,9.2c-0.4,4.5-3.6,7.2-8.9,7.3
			c-8.2,0.1-16.5,0.1-24.7,0.1c-8.1,0-16.2,0.1-24.3,0c-6.1-0.1-9.5-3.2-9.4-8.4c0.1-5,3.5-8,9.3-8.1
			C126.4,137.7,134.6,137.8,142.9,137.8C142.9,137.8,142.9,137.8,142.9,137.8z"/>
	</g>
	<g>
		
			<image style="overflow:visible;opacity:0.15;" width="1149" height="1149" xlink:href="744887BD.png"  transform="matrix(0.24 0 0 0.24 136.3385 136.1534)">
		</image>
		<g>
			<circle class="st1" cx="271.2" cy="271" r="128.7"/>
		</g>
	</g>
	<g>
		<path class="st2" d="M267.8,178.1c50.5-1.5,93.9,36.8,96.6,88.8c2.7,52.6-37.2,96.1-89,98.5c-52.6,2.5-93.6-37-97.9-84.8
			C172.5,224.5,215.5,179.7,267.8,178.1z M345.9,271.7c-0.2-41.6-33.4-74.7-74.5-75c-42.2-0.3-75.6,33.6-75.6,74.9
			c0,42,33.4,74.9,74.4,75.2C312.4,347.1,345.7,313.3,345.9,271.7z"/>
		<path class="st2" d="M327.4,354.7c10.4-7.2,19.2-16,26.5-26.5c2.5,2.1,4.9,4.1,7.3,6.1c6.4,5.2,12.8,10.4,19.2,15.7
			c7.3,6.1,14.6,12.2,22,18.3c8.6,7.1,17.2,14.2,25.8,21.3c5.4,4.5,11,8.8,16.2,13.5c7.5,6.8,10.7,15.4,9.6,25.5
			c-1.2,10.5-6.7,18.2-16,23.1c-5.2,2.8-10.7,3.7-16.6,3.1c-8.6-0.9-15.3-4.9-20.7-11.5c-5-6.1-10.1-12-15.1-18
			c-7.9-9.6-15.8-19.2-23.7-28.8c-7.5-9.1-15.1-18.2-22.6-27.4c-3.7-4.4-7.3-8.8-11-13.3C327.9,355.6,327.7,355.3,327.4,354.7z"/>
		<path class="st2" d="M219.1,227c1.5-1.6,3-3.3,4.6-4.8c10.1-9.6,22-15.7,35.7-17.9c32.7-5.3,60.1,12.3,72.2,36
			c14.4,28.3,6.8,59.8-10.9,78c9.9-14.9,13.8-31.3,11.3-49c-2.5-17.8-11.1-32.3-25-43.6c-12.8-10.3-27.7-15.3-44.1-14.9
			c-16.4,0.3-30.8,6-43.4,16.6C219.3,227.3,219.2,227.1,219.1,227z"/>
		<path class="st2" d="M298.4,253.2c4.4-0.2,8.4,3.9,8.3,8.4c-0.1,4.6-3.7,8.2-8.4,8.2c-4.7,0-8.2-3.6-8.2-8.3
			C290,256.7,294.3,253,298.4,253.2z"/>
		<path class="st2" d="M236.3,260c0.3,4.8-4.1,8.4-8.2,8.3c-4.6,0-8.4-3.7-8.4-8.4c0-4.6,3.7-8.3,8.2-8.3
			C232.7,251.7,236.5,255.4,236.3,260z"/>
		<path class="st2" d="M266.1,305c5.6,0.2,12.5,2.4,18.4,7.1c0.6,0.5,1.3,1.1,1.5,1.7c0.2,0.8,0.1,1.9-0.4,2.4
			c-0.9,1-2.2,0.6-3.3-0.1c-1.8-1.2-3.5-2.6-5.4-3.5c-5.8-2.9-11.8-3.9-18.3-2.6c-4.7,0.9-8.8,2.9-12.6,5.8c-0.5,0.3-1,0.7-1.6,0.7
			c-0.8,0-1.8-0.2-2.2-0.7c-0.4-0.5-0.5-1.8-0.1-2.3c1-1.2,2.2-2.3,3.5-3.2C250.9,306.9,257.7,305,266.1,305z"/>
		<path class="st2" d="M298.3,247.8c-3.3,0-6.6-0.8-9.5-2.3c-0.7-0.4-1.2-0.9-0.7-1.6c0.2-0.3,1.2-0.3,1.6-0.1
			c5.8,2.7,11.6,2.7,17.4,0c0.5-0.2,1.4-0.2,1.6,0.1c0.5,0.7-0.1,1.2-0.7,1.6C305,247,301.6,247.8,298.3,247.8z"/>
		<path class="st2" d="M228,246.7c-3.3,0-6.6-0.8-9.5-2.3c-0.7-0.4-1.2-0.9-0.7-1.6c0.2-0.3,1.2-0.3,1.6-0.1
			c5.8,2.7,11.6,2.7,17.4,0c0.5-0.2,1.4-0.2,1.6,0.1c0.5,0.7-0.1,1.2-0.7,1.6C234.7,246,231.3,246.7,228,246.7z"/>
	</g>
</g>
</svg>
