<svg id="Capa_1" enable-background="new 0 0 512 512" height="512" viewBox="0 0 512 512" width="512" xmlns="http://www.w3.org/2000/svg"><g><path d="m512 256c0 140.96-115.05 256-256 256-140.99 0-256-116.07-256-257 0-24.5 4.83-46.4 9.03-62.74 2.07-8.02 10.25-12.85 18.27-10.79 8.02 2.07 12.85 10.25 10.79 18.27-5.67 22.02-8.09 38.55-8.09 55.26 0 125.17 101.38 227 226 227s226-101.38 226-226-101.38-226-226-226c-70.79 0-137.6 34.3-180.04 91h60.04c8.28 0 15 6.72 15 15s-6.72 15-15 15h-90c-8.28 0-15-6.72-15-15v-90c0-8.28 6.72-15 15-15s15 6.72 15 15v45.57c48.14-57.39 119.23-91.57 195-91.57 140.96 0 256 115.05 256 256z" fill="#dfe7f4"/><path d="m512 256c0 140.96-115.05 256-256 256v-30c124.62 0 226-101.38 226-226s-101.38-226-226-226v-30c140.96 0 256 115.05 256 256z" fill="#c7cfe1"/><g><path d="m166 271h-60c-8.28 0-15 6.72-15 15v90c0 8.28 6.72 15 15 15h60c8.28 0 15-6.72 15-15v-90c0-8.28-6.72-15-15-15z" fill="#fed843"/></g><path d="m181 286v90c0 8.28-6.72 15-15 15h-30v-120h30c8.28 0 15 6.72 15 15z" fill="#fabe2c"/><g><path d="m286 211h-60c-8.28 0-15 6.72-15 15v150c0 8.28 6.72 15 15 15h60c8.28 0 15-6.72 15-15v-150c0-8.28-6.72-15-15-15z" fill="#7ed8f6"/></g><path d="m301 226v150c0 8.28-6.72 15-15 15h-30v-180h30c8.28 0 15 6.72 15 15z" fill="#6aa9ff"/><g><path d="m406 121h-60c-8.28 0-15 6.72-15 15v240c0 8.28 6.72 15 15 15h60c8.28 0 15-6.72 15-15v-240c0-8.28-6.72-15-15-15z" fill="#ff7b4a"/></g><path d="m421 136v240c0 8.28-6.72 15-15 15h-30v-270h30c8.28 0 15 6.72 15 15z" fill="#ff435b"/></g></svg>