<svg id="Capa_1" enable-background="new 0 0 512 512" height="512" viewBox="0 0 512 512" width="512" xmlns="http://www.w3.org/2000/svg"><g><path d="m370.143 256h-228.286c-7.653 0-13.857-6.204-13.857-13.857v-228.286c0-7.653 6.204-13.857 13.857-13.857h228.286c7.653 0 13.857 6.204 13.857 13.857v228.286c0 7.653-6.204 13.857-13.857 13.857z" fill="#e7a52e"/><path d="m370.143 0h-27.35v156.747c0 43.437-35.212 78.649-78.649 78.649h-136.144v6.746c0 7.653 6.204 13.857 13.857 13.857l43.4 15.184 56.886-15.183h27.714l35.043 15.184 65.243-15.184c7.653 0 13.857-6.204 13.857-13.857v-228.286c0-7.653-6.204-13.857-13.857-13.857z" fill="#e49824"/><path d="m284.988 30.905h-57.976c-7.385 0-13.372 5.987-13.372 13.372 0 7.385 5.987 13.372 13.372 13.372h57.976c7.385 0 13.372-5.987 13.372-13.372 0-7.385-5.987-13.372-13.372-13.372z" fill="#df8621"/><path d="m334.677 230.245h20.099c1.916 0 3.469-1.553 3.469-3.469v-20.099c0-1.916-1.553-3.469-3.469-3.469h-20.099c-1.916 0-3.469 1.553-3.469 3.469v20.099c0 1.916 1.554 3.469 3.469 3.469z" fill="#7a5440"/><circle cx="291.382" cy="216.727" fill="#845c47" r="13.519"/><path d="m242.143 512h-228.286c-7.653 0-13.857-6.204-13.857-13.857v-228.286c0-7.653 6.204-13.857 13.857-13.857h228.286c7.653 0 13.857 6.204 13.857 13.857v228.286c0 7.653-6.204 13.857-13.857 13.857z" fill="#e7a52e"/><path d="m242.143 256h-27.35v156.747c0 43.437-35.212 78.649-78.649 78.649h-136.144v6.746c0 7.654 6.204 13.858 13.857 13.858h228.286c7.653 0 13.857-6.204 13.857-13.857l14.026-114.143-14.026-114.143c0-7.653-6.204-13.857-13.857-13.857z" fill="#e49824"/><path d="m156.988 286.905h-57.976c-7.385 0-13.372 5.987-13.372 13.372 0 7.385 5.987 13.372 13.372 13.372h57.976c7.385 0 13.372-5.987 13.372-13.372 0-7.385-5.987-13.372-13.372-13.372z" fill="#df8621"/><path d="m206.678 486.245h20.099c1.916 0 3.469-1.553 3.469-3.469v-20.099c0-1.916-1.553-3.469-3.469-3.469h-20.099c-1.916 0-3.469 1.553-3.469 3.469v20.099c-.001 1.916 1.553 3.469 3.469 3.469z" fill="#7a5440"/><circle cx="163.382" cy="472.727" fill="#845c47" r="13.519"/><path d="m172.963 482.263c-2.8 1.486-5.701 2.808-8.69 3.953 3.39-.221 6.438-1.69 8.69-3.953z" fill="#7a5440"/><path d="m300.963 226.263c-2.8 1.486-5.701 2.808-8.69 3.953 3.39-.221 6.438-1.69 8.69-3.953z" fill="#7a5440"/><path d="m498.143 512h-228.286c-7.653 0-13.857-6.204-13.857-13.857v-228.286c0-7.653 6.204-13.857 13.857-13.857h228.286c7.653 0 13.857 6.204 13.857 13.857v228.286c0 7.653-6.204 13.857-13.857 13.857z" fill="#e7a52e"/><path d="m498.143 256h-27.35v156.747c0 43.437-35.212 78.649-78.649 78.649h-136.144v6.746c0 7.653 6.204 13.857 13.857 13.857h228.286c7.653 0 13.857-6.204 13.857-13.857v-228.285c0-7.653-6.204-13.857-13.857-13.857z" fill="#e49824"/><path d="m412.988 286.905h-57.976c-7.385 0-13.372 5.987-13.372 13.372 0 7.385 5.987 13.372 13.372 13.372h57.976c7.385 0 13.372-5.987 13.372-13.372 0-7.385-5.987-13.372-13.372-13.372z" fill="#df8621"/><path d="m462.677 486.245h20.099c1.916 0 3.469-1.553 3.469-3.469v-20.099c0-1.916-1.553-3.469-3.469-3.469h-20.099c-1.916 0-3.469 1.553-3.469 3.469v20.099c0 1.916 1.554 3.469 3.469 3.469z" fill="#7a5440"/><circle cx="419.382" cy="472.727" fill="#845c47" r="13.519"/><path d="m428.963 482.263c-2.8 1.486-5.701 2.808-8.69 3.953 3.39-.221 6.438-1.69 8.69-3.953z" fill="#7a5440"/></g></svg>