<?xml version="1.0" standalone="no"?>
<!DOCTYPE svg PUBLIC "-//W3C//DTD SVG 20010904//EN"
 "http://www.w3.org/TR/2001/REC-SVG-20010904/DTD/svg10.dtd">
<svg version="1.0" xmlns="http://www.w3.org/2000/svg"
 width="64.000000pt" height="64.000000pt" viewBox="0 0 64.000000 64.000000"
 preserveAspectRatio="xMidYMid meet">

<g transform="translate(0.000000,64.000000) scale(0.100000,-0.100000)"
fill="#000000" stroke="none">
<path d="M72 576 l-62 -65 2 -253 3 -253 240 0 240 0 3 85 3 85 42 20 c106 51
106 199 0 250 l-42 20 -3 85 -3 85 -181 3 -180 2 -62 -64z m388 -45 c0 -64 -2
-70 -22 -76 -51 -16 -98 -80 -98 -135 0 -55 47 -119 98 -135 20 -6 22 -12 22
-76 l0 -69 -205 0 -205 0 0 225 0 225 54 0 c60 0 66 6 66 71 l0 39 145 0 145
0 0 -69z m-330 19 c0 -14 -7 -20 -22 -20 -20 0 -21 1 -3 20 10 11 20 20 22 20
1 0 3 -9 3 -20z m424 -155 c46 -43 46 -107 0 -150 -67 -62 -174 -16 -174 75 0
91 107 137 174 75z"/>
<path d="M104 439 c-12 -21 21 -29 121 -29 100 0 133 8 121 29 -5 7 -48 11
-121 11 -73 0 -116 -4 -121 -11z"/>
<path d="M111 371 c-31 -20 3 -31 93 -31 97 0 113 4 95 27 -13 15 -165 19
-188 4z"/>
<path d="M104 289 c-12 -20 19 -29 102 -29 56 0 85 4 93 13 6 8 8 17 4 20 -11
12 -191 8 -199 -4z"/>
<path d="M111 221 c-7 -5 -10 -14 -7 -20 10 -15 232 -15 242 0 12 21 -21 29
-121 29 -55 0 -106 -4 -114 -9z"/>
<path d="M305 100 c-3 -5 0 -13 8 -16 23 -9 112 0 110 11 -4 14 -110 19 -118
5z"/>
<path d="M470 338 c-23 -51 -25 -78 -6 -78 12 0 56 85 56 109 0 28 -33 7 -50
-31z"/>
<path d="M417 354 c-9 -10 2 -24 19 -24 8 0 14 7 14 15 0 15 -21 21 -33 9z"/>
<path d="M520 295 c0 -8 7 -15 15 -15 8 0 15 7 15 15 0 8 -7 15 -15 15 -8 0
-15 -7 -15 -15z"/>
</g>
</svg>
